<svg xmlns="http://www.w3.org/2000/svg" viewBox="0 0 447.03 643.31"><defs><style>.cls-1{fill:#fff;}.cls-2{fill:#5e67af;}.cls-3{fill:#eff0f7;}.cls-4{fill:#ee2d79;}</style></defs><g id="Layer_2" data-name="Layer 2"><g id="Layer_1-2" data-name="Layer 1"><circle class="cls-1" cx="223.51" cy="42.87" r="38.29" transform="translate(176.29 265.51) rotate(-88.88)"/><path class="cls-2" d="M223.51,85.75a42.88,42.88,0,1,1,42.88-42.88A42.93,42.93,0,0,1,223.51,85.75Zm0-76.58a33.7,33.7,0,1,0,33.71,33.7A33.74,33.74,0,0,0,223.51,9.17Z"/><rect class="cls-1" x="150.53" y="41.68" width="145.97" height="53.84"/><path class="cls-1" d="M414,638.72H33a28.39,28.39,0,0,1-28.4-28.4V99.21A28.39,28.39,0,0,1,33,70.81H414a28.39,28.39,0,0,1,28.4,28.4V610.32a28.39,28.39,0,0,1-28.4,28.4"/><path class="cls-3" d="M414.06,70.81h-5.32V577.14a28.41,28.41,0,0,1-28.41,28.4H4.6v4.77A28.38,28.38,0,0,0,33,638.72H414.06a28.38,28.38,0,0,0,28.37-28.41V99.22a28.38,28.38,0,0,0-28.37-28.41"/><path class="cls-2" d="M414,643.31H33a33,33,0,0,1-33-33V99.21a33,33,0,0,1,33-33H414a33,33,0,0,1,33,33V610.32A33,33,0,0,1,414,643.31ZM33,75.39A23.85,23.85,0,0,0,9.17,99.21V610.32A23.85,23.85,0,0,0,33,634.14H414a23.85,23.85,0,0,0,23.82-23.82V99.21A23.85,23.85,0,0,0,414,75.39Z"/><path class="cls-2" d="M365.16,360.94H54.67a4.59,4.59,0,1,1,0-9.17H365.16a4.59,4.59,0,1,1,0,9.17Z"/><path class="cls-2" d="M212.28,394.18H54.67a4.59,4.59,0,0,1,0-9.18H212.28a4.59,4.59,0,0,1,0,9.18Z"/><path class="cls-2" d="M273.43,433.13H54.67a4.59,4.59,0,0,1,0-9.18H273.43a4.59,4.59,0,0,1,0,9.18Z"/><path class="cls-2" d="M365.16,460.25H54.67a4.59,4.59,0,1,1,0-9.17H365.16a4.59,4.59,0,1,1,0,9.17Z"/><path class="cls-2" d="M151.12,504.12H54.67a4.59,4.59,0,1,1,0-9.17h96.45a4.59,4.59,0,1,1,0,9.17Z"/><path class="cls-2" d="M365.16,548h-35.3a4.59,4.59,0,1,1,0-9.17h35.3a4.59,4.59,0,1,1,0,9.17Z"/><path class="cls-4" d="M70.82,190.94a6.67,6.67,0,0,1-6.66-6.67V132.38a6.67,6.67,0,1,1,13.33,0v51.89A6.67,6.67,0,0,1,70.82,190.94Z"/><path class="cls-4" d="M96.77,165H44.87a6.67,6.67,0,0,1,0-13.33h51.9a6.67,6.67,0,0,1,0,13.33Z"/><path class="cls-2" d="M301.09,100.1H145.94v-63H301.09Zm-146-9.17H291.91V46.26H155.12Z"/><path class="cls-2" d="M365.16,234.11H54.67a4.59,4.59,0,1,1,0-9.17H365.16a4.59,4.59,0,1,1,0,9.17Z"/><path class="cls-2" d="M365.16,267.35H54.67a4.59,4.59,0,1,1,0-9.18H365.16a4.59,4.59,0,1,1,0,9.18Z"/><path class="cls-2" d="M151.12,300.58H54.67a4.59,4.59,0,1,1,0-9.17h96.45a4.59,4.59,0,1,1,0,9.17Z"/><path class="cls-2" d="M273.43,330.76H54.67a4.59,4.59,0,1,1,0-9.17H273.43a4.59,4.59,0,1,1,0,9.17Z"/></g></g></svg>