<svg xmlns="http://www.w3.org/2000/svg" viewBox="0 0 568.64 522.23"><defs><style>.cls-1{fill:#5e67af;}.cls-2{fill:#ee2d79;}.cls-3{fill:#fff;}.cls-4{fill:#f2ae28;}</style></defs><g id="Layer_2" data-name="Layer 2"><g id="Layer_1-2" data-name="Layer 1"><path class="cls-1" d="M263.91,23.63A25,25,0,0,1,282,31.2a25.18,25.18,0,0,1,6.21,25l-62.49,210a79.12,79.12,0,0,1-151.67,0L10.08,51.31a21.4,21.4,0,0,1,5.29-21.24,21.27,21.27,0,0,1,15.36-6.44V14.46A30.73,30.73,0,0,0,0,45.12a31.06,31.06,0,0,0,1.29,8.81l63.94,214.9a88.29,88.29,0,0,0,169.25,0L297,58.79a34.48,34.48,0,0,0-33.06-44.33v9.17Z"/><path class="cls-2" d="M149.21,355.32a11.77,11.77,0,0,1-11.77-11.77V331.77H161v11.78A11.77,11.77,0,0,1,149.21,355.32Z"/><path class="cls-1" d="M149.21,355.32v-4.58a7.21,7.21,0,0,1-7.19-7.19v-7.2h14.39v7.2a7.22,7.22,0,0,1-7.2,7.19v9.17a16.37,16.37,0,0,0,16.37-16.36V327.18H132.85v16.37a16.36,16.36,0,0,0,16.36,16.36Z"/><path class="cls-1" d="M144.69,354.57a118.56,118.56,0,0,0-1.38,18.75,120.92,120.92,0,0,0,5.5,36.81c4.35,13.49,12,27.39,25.05,38.6a97.63,97.63,0,0,0,16.2,11.6c7.86,4.4,18,8.34,29.41,8.35,1.13,0,2.28,0,3.42-.12a43.26,43.26,0,0,0,19.05-5.81c9.81-5.72,17.21-14.85,23.92-25.56,10-16.08,18.66-36,30.35-55.18s26.31-37.5,48.13-50.68c21.23-12.84,50.26-21.25,79.12-21.23a129.87,129.87,0,0,1,43.36,7.08,98.24,98.24,0,0,1,37,23C524.29,360.65,535,390.28,535,422.74a163.64,163.64,0,0,1-11.84,60.11l8.53,3.38a172.74,172.74,0,0,0,12.48-63.49c0-34.43-11.37-66.52-33.84-89a107.52,107.52,0,0,0-40.44-25.2,139,139,0,0,0-46.43-7.6c-30.62,0-61,8.77-83.86,22.55-17.92,10.82-31.27,24.85-41.93,39.68-16,22.25-26.13,46.34-36.89,64.71-5.37,9.18-10.87,16.89-17,22.3s-12.88,8.61-21.5,9.24c-.93.06-1.86.1-2.78.1-9.28,0-17.94-3.27-24.92-7.19a88,88,0,0,1-14.7-10.54c-11.52-9.92-18.34-22.19-22.32-34.47a111.68,111.68,0,0,1-5-34,109,109,0,0,1,1.25-17.24l-9.05-1.51Z"/><path class="cls-3" d="M564.05,481a36.63,36.63,0,1,1-36.62-36.62A36.62,36.62,0,0,1,564.05,481Z"/><path class="cls-1" d="M564.05,481h-4.59a32,32,0,1,1-9.38-22.65A31.91,31.91,0,0,1,559.46,481h9.18a41.21,41.21,0,1,0-41.21,41.21A41.21,41.21,0,0,0,568.64,481Z"/><path class="cls-3" d="M546.74,481a19.31,19.31,0,1,1-19.31-19.31A19.32,19.32,0,0,1,546.74,481Z"/><path class="cls-1" d="M546.74,481h-4.59a14.72,14.72,0,1,1-4.31-10.41A14.65,14.65,0,0,1,542.15,481h9.17a23.9,23.9,0,1,0-23.89,23.9A23.9,23.9,0,0,0,551.32,481Z"/><path class="cls-4" d="M50.79,33.43a9.76,9.76,0,0,1-1.92-.19l-9.88-2a9.55,9.55,0,0,1-7.61-9.33V16.12A9.54,9.54,0,0,1,39,6.8l9.87-2A9.54,9.54,0,0,1,60.3,14.11v9.8A9.53,9.53,0,0,1,50.79,33.43Z"/><path class="cls-1" d="M50.79,9.17a4.94,4.94,0,0,1,4.92,4.94v9.8a4.89,4.89,0,0,1-5.92,4.83l-9.88-2A4.92,4.92,0,0,1,36,21.89V16.13a4.94,4.94,0,0,1,3.94-4.84l9.88-2a5.74,5.74,0,0,1,1-.1m0-9.17h0A14.26,14.26,0,0,0,48,.29l-9.87,2A14.15,14.15,0,0,0,26.8,16.13v5.76A14.15,14.15,0,0,0,38.08,35.71l9.87,2a14.33,14.33,0,0,0,2.84.29A14.12,14.12,0,0,0,64.88,23.91v-9.8A14.12,14.12,0,0,0,50.79,0Z"/><path class="cls-4" d="M249.08,33.43a9.53,9.53,0,0,1-9.51-9.52v-9.8A9.54,9.54,0,0,1,251,4.78l9.87,2a9.55,9.55,0,0,1,7.62,9.32v5.77a9.56,9.56,0,0,1-7.62,9.33l-9.87,2A9.54,9.54,0,0,1,249.08,33.43Z"/><path class="cls-1" d="M249.08,9.17a5.74,5.74,0,0,1,1,.1l9.87,2a4.94,4.94,0,0,1,3.95,4.84v5.76A4.92,4.92,0,0,1,260,26.72l-9.87,2a4.89,4.89,0,0,1-5.92-4.83v-9.8a4.94,4.94,0,0,1,4.92-4.94m0-9.17A14.12,14.12,0,0,0,235,14.11v9.8A14.12,14.12,0,0,0,249.08,38a14.33,14.33,0,0,0,2.84-.29l9.87-2a14.15,14.15,0,0,0,11.28-13.82V16.13A14.14,14.14,0,0,0,261.79,2.31l-9.87-2A14.33,14.33,0,0,0,249.08,0Z"/></g></g></svg>