<svg xmlns="http://www.w3.org/2000/svg" viewBox="0 0 3276.7 941.5">
    <defs>
        <style>.cls-1{fill:#fff;}.cls-2{fill:#eff0f7;}.cls-3{fill:#5e67af;}.cls-4{font-size:851.36px;fill:#525b9f;font-family:Microsoft-Yi-Baiti, Microsoft Yi Baiti;}</style>
    </defs>
    <g id="Layer_2" data-name="Layer 2">
        <g id="Layer_1-2" data-name="Layer 1">
            <path class="cls-1" d="M1045.43,269.91a255.46,255.46,0,0,1-75,181L623.72,797.61a88.23,88.23,0,0,1-124.77,0L199.27,497.92l-47.05-47.05c-100-99.92-100-262,0-362.06a256,256,0,0,1,362.07,0l47.05,47.05,47-47.05c99.93-99.92,262-99.92,362.07,0a255.76,255.76,0,0,1,75,181.1"/>
            <path class="cls-1" d="M501.14,76.75c-4.43,3.79-8.86,7.85-13.1,12.09l-47.05,47-47.05-47A255.67,255.67,0,0,0,273.09,21,255.33,255.33,0,0,1,501.14,76.75Z"/>
            <path class="cls-2" d="M501.16,799.74l0,0a87.83,87.83,0,0,0,54.1,23.48,87.86,87.86,0,0,1-54.08-23.5M854.88,566.45,623.72,797.61a87.73,87.73,0,0,1-40.2,23,88,88,0,0,0,40.23-23L854.88,566.45m160.94-416.17a256.32,256.32,0,0,1,2.31,234.7,256.24,256.24,0,0,0-2.31-234.7M902.15,39.94l.14.07-.14-.07M838.29,18.55A255.84,255.84,0,0,1,902.1,39.92a254.9,254.9,0,0,0-63.81-21.37m-.35-.06.19,0-.19,0"/>
            <path class="cls-2" d="M789.47,13.88A256.31,256.31,0,0,0,729.29,21,256,256,0,0,1,850.14,450.85L503.35,797.64c-.72.73-1.46,1.37-2.19,2.1a87.86,87.86,0,0,0,54.08,23.5q3,.21,6.08.21a88.78,88.78,0,0,0,22.2-2.82,87.73,87.73,0,0,0,40.2-23L854.88,566.45l115.56-115.6A256.16,256.16,0,0,0,902.29,40l-.14-.07,0,0a255.84,255.84,0,0,0-63.81-21.37l-.16,0-.19,0a256.48,256.48,0,0,0-48.47-4.61"/>
            <path class="cls-3" d="M266.66,117a166,166,0,0,1,66.53-13.76,11,11,0,0,0,0-21.94,188.05,188.05,0,0,0-75.3,15.6,11,11,0,1,0,8.77,20.1Z"/>
            <path class="cls-3" d="M215.45,387.64a166.47,166.47,0,0,1,0-235.61q5.36-5.35,11.1-10.16a11,11,0,1,0-14.08-16.82q-6.48,5.43-12.53,11.46a188.41,188.41,0,0,0,0,266.65,11,11,0,1,0,15.5-15.52Z"/>
            <path class="cls-3" d="M561.34,837.29a101.4,101.4,0,0,1-72.18-29.9L142.44,460.65A269.85,269.85,0,0,1,524.05,79l37.29,37.29L598.6,79C703.76-26.12,875-26.13,980.23,79a269.9,269.9,0,0,1,0,381.64L633.51,807.39A101.4,101.4,0,0,1,561.34,837.29ZM333.19,27.68A242.12,242.12,0,0,0,162,441.08L508.73,787.82a74.37,74.37,0,0,0,105.21,0L960.68,441.09a242.23,242.23,0,0,0,0-342.51c-94.47-94.35-248.13-94.35-342.49,0l-56.83,56.84L504.5,98.59A241.09,241.09,0,0,0,333.19,27.68Z"/>
            <path class="cls-3" d="M1263.23,372.36h83.09a11,11,0,1,0,0-21.93h-83.09a11,11,0,1,0,0,21.93"/>
            <path class="cls-3" d="M11,489.4H474.29l41.35-97.58,80.2,229.48L713.61,252.93l17,119.43h437.51a11,11,0,1,0,0-21.93H749.68L721.83,155.22,594.91,552.17,517.6,331l-57.84,136.5H11a11,11,0,0,0,0,21.94Z"/>
            <text class="cls-4" transform="translate(955 799.74)">cure.me</text>
        </g>
    </g>
</svg>